# xmcd CD database file
#
# Track frame offsets:
#	150
#	79444
#	131503
#	156921
#	198136
#
# Disc length: 2845 seconds
#
# Revision: 0
# Processed by: cddbd v1.5.2PL0 Copyright (c) Steve Scherf et al.
# Submitted via: CDex 1.51
#
DISCID=3b0b1b05
DTITLE=John Carter and Bobby Bradford - The Complete Revelation Sessions CD 3
DYEAR=1900
DGENRE=Jazz
TTITLE0=And She Speaks
TTITLE1=Pinch
TTITLE2=Redwood
TTITLE3=This Earth Feeling
TTITLE4=Scramble
EXTD=
EXTT0=
EXTT1=
EXTT2=
EXTT3=
EXTT4=
PLAYORDER=
